<svg width="200" height="200" viewBox="0 0 200 200" fill="none" xmlns="http://www.w3.org/2000/svg">
<circle cx="100" cy="100" r="100" fill="black"/>
<line y1="99" x2="200" y2="99" stroke="#DCDCDC" stroke-width="6"/>
<circle cx="100" cy="100" r="33" fill="#DCDCDC"/>
<circle cx="100" cy="100" r="28" fill="#008780"/>
<path d="M53.2636 84.952L20.4598 73.0124L25.1703 60.0702C26.0759 57.5822 27.3226 55.6355 28.9103 54.2301C30.4874 52.8209 32.2814 51.9622 34.2921 51.6541C36.296 51.3314 38.3872 51.5665 40.5656 52.3593C42.744 53.1522 44.4951 54.3216 45.8189 55.8676C47.1427 57.4136 47.9445 59.2473 48.2245 61.3688C48.5083 63.4795 48.1916 65.7949 47.2744 68.315L44.272 76.564L38.7139 74.541L41.3082 67.4132C41.7941 66.0785 41.9648 64.895 41.8204 63.863C41.6693 62.8163 41.2603 61.9298 40.5936 61.2034C39.92 60.4624 39.044 59.8957 37.9655 59.5031C36.8763 59.1067 35.8462 58.9797 34.8753 59.1221C33.8976 59.25 33.0252 59.6701 32.258 60.3825C31.4801 61.091 30.8463 62.118 30.3566 63.4635L28.6543 68.1406L55.7879 78.0164L53.2636 84.952Z" fill="#DCDCDC"/>
<path d="M153.244 145.956C154.033 146.306 154.81 146.52 155.575 146.599C156.349 146.684 157.106 146.63 157.847 146.436C158.59 146.258 159.308 145.941 160.003 145.485C160.689 145.038 161.34 144.449 161.953 143.718C163.1 142.351 163.768 140.865 163.959 139.259C164.142 137.662 163.826 136.032 163.011 134.369C162.204 132.714 160.87 131.105 159.007 129.541C157.144 127.978 155.322 126.932 153.542 126.402C151.761 125.872 150.093 125.837 148.536 126.295C146.987 126.762 145.622 127.7 144.438 129.11C143.365 130.39 142.674 131.672 142.367 132.957C142.062 134.258 142.126 135.499 142.56 136.679C142.986 137.868 143.77 138.94 144.91 139.897L143.776 140.904L149.561 134.01L153.818 137.581L144.428 148.772L141.059 145.945C138.709 143.973 137.106 141.782 136.25 139.373C135.402 136.97 135.252 134.515 135.799 132.007C136.355 129.507 137.575 127.133 139.459 124.888C141.563 122.38 143.964 120.642 146.662 119.672C149.368 118.709 152.19 118.555 155.127 119.21C158.065 119.88 160.944 121.399 163.765 123.765C165.932 125.584 167.602 127.519 168.773 129.57C169.946 131.637 170.646 133.738 170.873 135.871C171.1 138.005 170.887 140.089 170.234 142.122C169.582 144.155 168.514 146.056 167.031 147.823C165.76 149.337 164.355 150.561 162.815 151.495C161.284 152.435 159.695 153.074 158.046 153.412C156.391 153.759 154.74 153.79 153.094 153.507C151.457 153.23 149.9 152.629 148.423 151.701L153.244 145.956Z" fill="#DCDCDC"/>
<path d="M48.8285 166.534L42.9777 159.562L54.7654 137.121L54.5024 136.807L30.3557 144.519L24.5048 137.546L51.2468 115.107L55.8485 120.592L38.4428 135.197L38.629 135.419L61.7112 127.844L64.8448 131.578L53.3113 153.049L53.4976 153.271L70.9686 138.611L75.5704 144.095L48.8285 166.534Z" fill="#DCDCDC"/>
<path d="M122.97 181.817L114.735 182.537L105.495 168.254L105.155 168.284L98.5353 183.955L90.2997 184.675L101.017 161.083L99.9416 148.789L107.243 148.15L108.319 160.444L122.97 181.817Z" fill="#DCDCDC"/>
<path d="M139.955 46.4126C138.051 49.7094 135.807 52.1534 133.222 53.7445C130.647 55.3413 127.934 56.1305 125.084 56.1121C122.25 56.0897 119.499 55.3085 116.832 53.7688C114.146 52.2176 112.087 50.2154 110.656 47.7622C109.225 45.3089 108.557 42.568 108.652 39.5394C108.748 36.5108 109.744 33.353 111.642 30.0661C113.545 26.7692 115.784 24.3225 118.36 22.7257C120.935 21.1289 123.64 20.3418 126.474 20.3643C129.314 20.3769 132.078 21.1588 134.764 22.7099C137.431 24.2497 139.48 26.2462 140.911 28.6995C142.358 31.1486 143.033 33.8874 142.938 36.916C142.853 39.9503 141.858 43.1158 139.955 46.4126ZM133.474 42.6712C134.707 40.5356 135.427 38.55 135.634 36.7144C135.851 34.8844 135.602 33.2581 134.888 31.8356C134.175 30.413 133.045 29.2558 131.5 28.3637C129.955 27.4717 128.388 27.0721 126.799 27.1651C125.21 27.2581 123.672 27.8531 122.186 28.9502C120.71 30.0529 119.355 31.672 118.122 33.8075C116.889 35.9431 116.164 37.9258 115.948 39.7558C115.741 41.5915 115.994 43.2206 116.708 44.6431C117.422 46.0656 118.552 47.2229 120.097 48.115C121.642 49.007 123.209 49.4066 124.798 49.3136C126.386 49.2206 127.919 48.6227 129.396 47.52C130.882 46.423 132.241 44.8067 133.474 42.6712Z" fill="#DCDCDC"/>
<path d="M87.5003 30.299C89.4037 33.5958 90.3981 36.7613 90.4835 39.7956C90.5787 42.8242 89.9059 45.568 88.4651 48.0269C87.0284 50.4703 84.9766 52.4619 82.3096 54.0017C79.623 55.5528 76.8596 56.3347 74.0195 56.3474C71.1795 56.36 68.4718 55.568 65.8966 53.9712C63.3214 52.3744 61.0849 49.9326 59.1872 46.6456C57.2838 43.3488 56.2844 40.1861 56.1892 37.1575C56.094 34.1289 56.7647 31.3929 58.2014 28.9495C59.6324 26.4962 61.6912 24.494 64.3778 22.9429C67.0448 21.4031 69.7983 20.6269 72.6384 20.6143C75.4826 20.5861 78.1924 21.3704 80.7676 22.9672C83.3527 24.5583 85.5969 27.0022 87.5003 30.299ZM81.0199 34.0405C79.7869 31.9049 78.4273 30.2887 76.941 29.1916C75.4646 28.0889 73.9319 27.4911 72.343 27.3981C70.7541 27.3051 69.1871 27.7046 67.642 28.5967C66.097 29.4887 64.9675 30.646 64.2535 32.0685C63.5396 33.4911 63.2861 35.1202 63.493 36.9558C63.7098 38.7858 64.4346 40.7686 65.6676 42.9041C66.9006 45.0397 68.2552 46.6588 69.7317 47.7615C71.2179 48.8585 72.7555 49.4535 74.3445 49.5465C75.9334 49.6395 77.5004 49.24 79.0454 48.3479C80.5905 47.4559 81.72 46.2986 82.4339 44.8761C83.1478 43.4535 83.3964 41.8273 83.1797 39.9973C82.9728 38.1616 82.2528 36.176 81.0199 34.0405Z" fill="#DCDCDC"/>
<path d="M138.314 63.584L171.118 51.6444L175.828 64.5866C176.73 67.0639 177.056 69.3395 176.808 71.4134C176.573 73.494 175.817 75.2869 174.539 76.7921C173.275 78.3041 171.56 79.4546 169.392 80.2436C167.213 81.0365 165.168 81.2487 163.257 80.8803C161.356 80.5081 159.664 79.5819 158.182 78.1018C156.704 76.6323 155.506 74.6376 154.589 72.1175L151.435 63.452L157.009 61.4232L159.755 68.9675C160.237 70.2916 160.819 71.3254 161.501 72.0688C162.182 72.8123 162.964 73.2655 163.846 73.4283C164.731 73.6018 165.713 73.4923 166.792 73.0998C167.881 72.7034 168.72 72.1502 169.308 71.4403C169.9 70.7411 170.227 69.8784 170.288 68.8522C170.365 67.8328 170.16 66.6557 169.674 65.3209L167.972 60.6438L140.838 70.5196L138.314 63.584ZM159.69 75.8659L147.729 89.4523L144.943 81.7959L156.968 68.3858L159.69 75.8659Z" fill="#DCDCDC"/>
</svg>
